<?xml version="1.0" encoding="UTF-8"?>
<svg id="Layer_2" data-name="Layer 2" xmlns="http://www.w3.org/2000/svg" viewBox="0 0 160.43 48.13">
  <defs>
    <style>
      .cls-1 {
        fill: #fff;
      }
    </style>
  </defs>
  <g id="Layer_1-2" data-name="Layer 1">
    <path class="cls-1" d="m72.88,29.37s-1.33-.48-5.71-4.07c0,0-2.11-2.11-7.46-5.45,0,0-7.92-5.67-18.78-8.05,0,0-8.01-2.75-22.41-.87,0,0-10.32,1-15.72,5.63,0,0-5.95,4.83-.48,9.49,0,0,4.04,4.74,20.64,4.98,0,0,15.56.77,26.64-1.24,0,0,7.57-1.12,12.03-2.84l2.97-1.21s3.73-1.55,2.77-5.94c0,0-1.14-6.59-12.57-4.45,0,0-10.17,2.49-12.66,3.58l-5.4,1.87,7.14-5.19s8.74-5.46,10.37-6.53c0,0,5.83-3.57,7.16-5.2,0,0,1.82-2.39,1.21-3.8,0,0-.8-.37-1.01.66,0,0,.36,2.29-2.89,4.42,0,0-7.48,4.96-10.85,6.92,0,0-8.41,5.17-10.83,7.21,0,0-4.26,3.36.96,2.14,0,0,7.1-2.2,11.54-3.45,0,0,11.32-3.01,13.94-1.3,0,0,2.61.85,3.12,4.37,0,0,.55,3.85-7.5,5.42,0,0-13,3.52-26.86,3.4,0,0-14.01.96-23.18-1.65,0,0-8.29-2.65-7.67-6.82,0,0-.18-3.06,6-5.85,0,0,8.84-3.9,19.38-3.86,0,0,8.76-.34,13.91,1.5,0,0,11.23,3.18,15.83,6.31,0,0,4.12,2.06,11.12,7.58,0,0,2.58,2.33,5.26,2.31Z"/>
    <path class="cls-1" d="m69.72,19.64s1.05.94,3.41,1.24c0,0,2.19.19,3.62-.08,0,0,1.29-.09,1.83-.31.38-.16-2.15.45-3.78,1.03,0,0-3,1.02-3.23,2.21,0,0-.36,1.95,2.49,1.56,0,0,1.39.05,3.9-1.96,0,0,1.08-1.16,1.12-1.67,0,0,.09-.99-.61-.31,0,0-1.94,2.72-3.84,3.25,0,0-2.36.41-2.06-.86,0,0,.23-1.1,3.33-1.94,0,0,.68-.26,1.9-.49,0,0,1.44-.3,1.16,1.25,0,0-.21,1.17.34,2.23,0,0,.21.37.76.59,0,0,.6.02-.02-.59,0,0-.8-1.04-.56-2.65,0,0,.19-.8.47-1.38,0,0,.5-1.09-1.22-.94,0,0-3.13.58-5.46.4,0,0-1.19.05-3.09-1.12,0,0-.95-.76-1.06-.31,0,0-.2.29.59.83Z"/>
    <path class="cls-1" d="m87.38,13.14s1.11,2.97,1.71,6.16c0,0,.66,2.67.41,3.13,0,0-.67.06-2.06-1.51,0,0-1.77-1.56-5.04-.26,0,0-1.69.45-1.47,2.39,0,0,.1,1.21,1.57,1.8,0,0,2.34.57,4-.05,0,0,.95-.2,2.35-.96,0,0,.97-.78-.14-.66,0,0-1.01.73-2.69,1.02,0,0-2.95.77-3.94-.34,0,0-.83-.61-.23-2.03,0,0,.71-1.19,3.49-1.02,0,0,1.77.18,2.4,1.24,0,0,.61,1.25,1.61,1.68,0,0,.96-.01,1.04-.71,0,0,.27-.5-.28-3.58,0,0-.52-2.37-1.29-4.88,0,0-.15-.73-.76-1.95,0,0-1.2-1.13-.66.53Z"/>
    <path class="cls-1" d="m91.31,12.27s.49,4.69.53,7.79c0,0,0,2.59.08,3.37,0,0,0,1.47.8.47.11-.83,0-1.29,0-2.06,0,0,.02-1.98,2.15-1.85,0,0,2.13.07,3.3,1.76,0,0,.71,1.14-.19,2.25,0,0,.06.55.72.04,0,0,1.51-1.39-.01-3.38,0,0-1.06-1.33-3.02-1.43,0,0-1.4-.07-2.32.34,0,0-1.01.51-.85-1.03,0,0,.02-2.09-.24-4.04,0,0-.1-1.49-.4-2.69,0,0-.49-.91-.56.45Z"/>
    <path class="cls-1" d="m100.15,19.08s.7,1.54.62,3.11c0,0,.03.65,0,1.07,0,0-.11,1.4.87.17,0,0,.39-1.04-.14-3.28,0,0-.19-1.18-.68-1.53,0,0-.97-.96-.68.46Z"/>
    <path class="cls-1" d="m99.6,15.99s.04-.17.39-.76c0,0,.14-.84-.79-.69,0,0-.58.66-.43,1.31,0,0,.2.63.79.79,0,0-.13-.26.04-.65Z"/>
    <path class="cls-1" d="m104.68,15.47s-1.09,1.11-1.71,2.71c0,0-.82,1.7-.36,3.55,0,0,.64,1.94,2.42,1.84.16-.04,1.67-.15,3.27-.64,0,0,.95-.21,2.15-1.18,0,0,1.68-1.3-.1-.61,0,0-1.78,1.21-4.34,1.54,0,0-2.28.39-2.53-1.29,0,0-.59-1.68.95-4.23,0,0,2.06-2.72.26-1.69Z"/>
    <path class="cls-1" d="m110.51,17.01s1.05.94,3.41,1.24c0,0,2.19.19,3.62-.08,0,0,1.29-.09,1.83-.31.38-.16-2.15.45-3.78,1.03,0,0-3,1.02-3.23,2.21,0,0-.36,1.95,2.49,1.56,0,0,1.39.05,3.9-1.96,0,0,1.08-1.16,1.12-1.67,0,0,.09-.99-.61-.31,0,0-1.94,2.72-3.84,3.25,0,0-2.36.41-2.06-.86,0,0,.23-1.1,3.33-1.94,0,0,.68-.26,1.9-.49,0,0,1.44-.3,1.16,1.25,0,0-.21,1.17.34,2.23,0,0,.21.37.76.59,0,0,.6.02-.02-.59,0,0-.8-1.04-.56-2.65,0,0,.19-.8.47-1.38,0,0,.5-1.09-1.22-.94,0,0-3.13.58-5.46.4,0,0-1.19.05-3.09-1.12,0,0-.95-.76-1.06-.31,0,0-.2.29.59.83Z"/>
    <path class="cls-1" d="m128.96,15.93s-.83-1.38-2.84-1.45c0,0-1.75.16-1.94.35s-.32-.59-.58-.72c0,0-.36-.14-.95.08,0,0-.14-.45-.4,1.38,0,0-.4,1.57.16,3.12,0,0,.18.7,1.26,2.85,0,0,1.59,2,1.33.44,0,0-1.58-2.29-1.92-3.95,0,0-.29-2.03,1.37-2.47,0,0,1.56-.42,3.93.55,0,0,1.15,1.02.61-.17Z"/>
    <path class="cls-1" d="m130.74,17.7s.65,4.9.8,8.57c0,0,.49,6.2.54,12.55,0,0,.08,3.79.44,6.58,0,0-.03,1.14.02,1.98,0,0,.43,1.84.96-.23,0,0-.01-1.3-.22-3.89,0,0-.54-4.03-.4-6.63,0,0-.18-3.57-.13-5.91,0,0-.52-4.57-.43-6.81,0,0-.3-4.45-.81-6.63,0,0-.56-3.06-.76.41Z"/>
    <path class="cls-1" d="m131.01,14.46s.03-.17.35-.78c0,0,.1-.84-.83-.65,0,0-.54.69-.36,1.33,0,0,.24.62.83.74,0,0-.15-.25,0-.65Z"/>
    <path class="cls-1" d="m76.84,27.66s5.61-1.28,13.72-1.12c0,0,13.44-.03,16.34-.86,0,0,2.74-.58,12.7-1.65,0,0,10.79-.97,13.72-.76,0,0,7.59-.4,9.56-.65,0,0,5.63-.66,10.01-.3,0,0,5.62.94,6.85-.12,0,0,1.41.08.18,1.06,0,0-.89.68-7.62-.21,0,0-7.36-.09-11.87.47,0,0-6.86.53-9.57.55,0,0-13.59.28-16.36,1.29,0,0-9.21,1.69-16.34,1.78,0,0-12.21-.05-15.19.57,0,0-4.48.42-5.87.83,0,0-1.76.2-.25-.89Z"/>
  </g>
</svg>